[h264 @ 0x55adff27bd40] Reinit context to 1920x1088, pix_fmt: yuv420p
Input #0, mov,mp4,m4a,3gp,3g2,mj2, from '/var/www/html/project/media/video/original/video_watermark1686648003025.mp4':
  Metadata:
    major_brand     : isom
    minor_version   : 512
    compatible_brands: isomiso2avc1mp41
    encoder         : Lavf58.48.100
  Duration: 00:00:47.70, start: 0.000000, bitrate: 21081 kb/s
    Stream #0:0(und): Video: h264 (Constrained Baseline), 1 reference frame (avc1 / 0x31637661), yuv420p(left), 1920x1080 (1920x1088) [SAR 1:1 DAR 16:9], 20949 kb/s, 30 fps, 30 tbr, 1000k tbn, 60 tbc (default)
    Metadata:
      handler_name    : VideoHandler
    Stream #0:1(und): Audio: aac (LC) (mp4a / 0x6134706D), 44100 Hz, stereo, fltp, 125 kb/s (default)
    Metadata:
      handler_name    : SoundHandler
[h264 @ 0x55adff2a4dc0] Reinit context to 1280x720, pix_fmt: yuv420p
Input #1, mov,mp4,m4a,3gp,3g2,mj2, from '/var/www/html/project/static/images/templates/Codino.mp4':
  Metadata:
    major_brand     : mp42
    minor_version   : 1
    compatible_brands: isommp41mp42
    creation_time   : 2021-07-11T07:02:58.000000Z
  Duration: 00:00:02.00, start: 0.000000, bitrate: 1007 kb/s
    Stream #1:0(ita): Audio: aac (LC) (mp4a / 0x6134706D), 44100 Hz, stereo, fltp, 102 kb/s (default)
    Metadata:
      creation_time   : 2021-07-11T07:02:58.000000Z
      handler_name    : Core Media Audio
    Stream #1:1(und): Video: h264 (High), 1 reference frame (avc1 / 0x31637661), yuv420p(tv, bt709, progressive, left), 1280x720 [SAR 1:1 DAR 16:9], 813 kb/s, 25 fps, 25 tbr, 25k tbn, 50k tbc (default)
    Metadata:
      creation_time   : 2021-07-11T07:02:58.000000Z
      handler_name    : Core Media Video
[Parsed_scale_0 @ 0x55adff35af80] w:1280 h:720 flags:'bilinear' interl:0
[Parsed_scale_2 @ 0x55adff34c600] w:1280 h:720 flags:'bilinear' interl:0
Stream mapping:
  Stream #0:0 (h264) -> scale
  Stream #0:1 (aac) -> concat:in0:a0
  Stream #1:0 (aac) -> concat:in1:a0
  Stream #1:1 (h264) -> scale
  concat:out:v0 -> Stream #0:0 (libx264)
  concat:out:a0 -> Stream #0:1 (aac)
Press [q] to stop, [?] for help
[h264 @ 0x55adff2e1480] Reinit context to 1920x1088, pix_fmt: yuv420p
[h264 @ 0x55adff6e3080] Reinit context to 1280x720, pix_fmt: yuv420p
[Parsed_scale_0 @ 0x55ae00bc62c0] w:1280 h:720 flags:'bilinear' interl:0
[Parsed_scale_2 @ 0x55ae00bcefc0] w:1280 h:720 flags:'bilinear' interl:0
[graph 0 input from stream 0:0 @ 0x55ae00bd2100] w:1920 h:1080 pixfmt:yuv420p tb:1/1000000 fr:1000000/33333 sar:1/1 sws_param:flags=2
[graph 0 input from stream 1:1 @ 0x55ae00bd31c0] w:1280 h:720 pixfmt:yuv420p tb:1/25000 fr:25/1 sar:1/1 sws_param:flags=2
[graph_0_in_0_1 @ 0x55ae00bd4180] tb:1/44100 samplefmt:fltp samplerate:44100 chlayout:0x3
[graph_0_in_1_0 @ 0x55ae00bd52c0] tb:1/44100 samplefmt:fltp samplerate:44100 chlayout:0x3
[Parsed_scale_0 @ 0x55ae00bc62c0] w:1920 h:1080 fmt:yuv420p sar:1/1 -> w:1280 h:720 fmt:yuv420p sar:1/1 flags:0x2
[Parsed_setsar_1 @ 0x55ae00bce780] w:1280 h:720 sar:1/1 dar:16/9 -> sar:1/1 dar:16/9
[Parsed_scale_2 @ 0x55ae00bcefc0] w:1280 h:720 fmt:yuv420p sar:1/1 -> w:1280 h:720 fmt:yuv420p sar:1/1 flags:0x2
[Parsed_setsar_3 @ 0x55ae00bcf4c0] w:1280 h:720 sar:1/1 dar:16/9 -> sar:1/1 dar:16/9
[libx264 @ 0x55adff347700] using SAR=1/1
[libx264 @ 0x55adff347700] using cpu capabilities: MMX2 SSE2Fast SSSE3 SSE4.2 AVX FMA3 BMI2 AVX2
[libx264 @ 0x55adff347700] profile High, level 3.2
[libx264 @ 0x55adff347700] 264 - core 155 r2917 0a84d98 - H.264/MPEG-4 AVC codec - Copyleft 2003-2018 - http://www.videolan.org/x264.html - options: cabac=1 ref=1 deblock=1:0:0 analyse=0x3:0x113 me=hex subme=2 psy=1 psy_rd=1.00:0.00 mixed_ref=0 me_range=16 chroma_me=1 trellis=0 8x8dct=1 cqm=0 deadzone=21,11 fast_pskip=1 chroma_qp_offset=0 threads=22 lookahead_threads=5 sliced_threads=0 nr=0 decimate=1 interlaced=0 bluray_compat=0 constrained_intra=0 bframes=3 b_pyramid=2 b_adapt=1 b_bias=0 direct=1 weightb=1 open_gop=0 weightp=1 keyint=250 keyint_min=25 scenecut=40 intra_refresh=0 rc_lookahead=10 rc=crf mbtree=1 crf=18.0 qcomp=0.60 qpmin=0 qpmax=69 qpstep=4 ip_ratio=1.40 aq=1:1.00
Output #0, mp4, to '/var/www/html/project/media/video/watermarks/video_watermark1686648003025.mp4':
  Metadata:
    major_brand     : isom
    minor_version   : 512
    compatible_brands: isomiso2avc1mp41
    encoder         : Lavf58.29.100
    Stream #0:0: Video: h264 (libx264), 1 reference frame (avc1 / 0x31637661), yuv420p(progressive), 1280x720 [SAR 1:1 DAR 16:9], q=-1--1, 30 fps, 1000k tbn, 30 tbc (default)
    Metadata:
      encoder         : Lavc58.54.100 libx264
    Side data:
      cpb: bitrate max/min/avg: 0/0/0 buffer size: 0 vbv_delay: -1
    Stream #0:1: Audio: aac (LC) (mp4a / 0x6134706D), 44100 Hz, stereo, fltp, delay 1024, 128 kb/s (default)
    Metadata:
      encoder         : Lavc58.54.100 aac
[Parsed_concat_4 @ 0x55ae00bd0180] EOF on in0:v0, 1 streams left in segment.
[Parsed_concat_4 @ 0x55ae00bd0180] EOF on in0:a0, 0 streams left in segment.
[Parsed_concat_4 @ 0x55ae00bd0180] Segment finished at pts=47699523
[Parsed_concat_4 @ 0x55ae00bd0180] EOF on in1:a0, 1 streams left in segment.
[Parsed_concat_4 @ 0x55ae00bd0180] EOF on in1:v0, 0 streams left in segment.
[Parsed_concat_4 @ 0x55ae00bd0180] Segment finished at pts=49718208
No more output streams to write to, finishing.
frame= 1481 fps= 69 q=-1.0 Lsize=   33737kB time=00:00:49.73 bitrate=5556.6kbits/s speed=2.31x    
[AVIOContext @ 0x55adff27a180] Statistics: 0 seeks, 43 writeouts
video:32906kB audio:777kB subtitle:0kB other streams:0kB global headers:0kB muxing overhead: 0.157865%
Input file #0 (/var/www/html/project/media/video/original/video_watermark1686648003025.mp4):
  Input stream #0:0 (video): 1431 packets read (124907854 bytes); 1431 frames decoded; 
  Input stream #0:1 (audio): 2053 packets read (748191 bytes); 2052 frames decoded (2101248 samples); 
  Total: 3484 packets (125656045 bytes) demuxed
Input file #1 (/var/www/html/project/static/images/templates/Codino.mp4):
  Input stream #1:0 (audio): 89 packets read (26579 bytes); 87 frames decoded (89024 samples); 
  Input stream #1:1 (video): 50 packets read (203365 bytes); 50 frames decoded; 
  Total: 139 packets (229944 bytes) demuxed
Output file #0 (/var/www/html/project/media/video/watermarks/video_watermark1686648003025.mp4):
  Output stream #0:0 (video): 1481 frames encoded; 1481 packets muxed (33696095 bytes); 
  Output stream #0:1 (audio): 2142 frames encoded (2192569 samples); 2143 packets muxed (795945 bytes); 
  Total: 3624 packets (34492040 bytes) muxed
[AVIOContext @ 0x55adff33dd00] Statistics: 2 seeks, 135 writeouts
[libx264 @ 0x55adff347700] frame I:8     Avg QP:15.87  size:199582
[libx264 @ 0x55adff347700] frame P:493   Avg QP:20.40  size: 47142
[libx264 @ 0x55adff347700] frame B:980   Avg QP:24.99  size:  9039
[libx264 @ 0x55adff347700] consecutive B-frames: 10.3%  3.6%  2.0% 84.0%
[libx264 @ 0x55adff347700] mb I  I16..4: 13.8%  3.5% 82.7%
[libx264 @ 0x55adff347700] mb P  I16..4:  0.6%  0.7%  1.2%  P16..4: 49.2% 16.0% 16.9%  0.0%  0.0%    skip:15.5%
[libx264 @ 0x55adff347700] mb B  I16..4:  0.1%  0.0%  0.0%  B16..8: 17.9%  9.1%  2.6%  direct:12.5%  skip:57.7%  L0:25.1% L1:37.5% BI:37.4%
[libx264 @ 0x55adff347700] 8x8 transform intra:18.2% inter:34.5%
[libx264 @ 0x55adff347700] coded y,uvDC,uvAC intra: 79.2% 66.5% 37.5% inter: 28.8% 8.5% 0.5%
[libx264 @ 0x55adff347700] i16 v,h,dc,p: 46% 37% 14%  3%
[libx264 @ 0x55adff347700] i8 v,h,dc,ddl,ddr,vr,hd,vl,hu: 21% 38% 19%  2%  3%  4%  4%  3%  5%
[libx264 @ 0x55adff347700] i4 v,h,dc,ddl,ddr,vr,hd,vl,hu: 20% 28% 10%  5%  8%  7%  9%  5%  9%
[libx264 @ 0x55adff347700] i8c dc,h,v,p: 49% 27% 17%  7%
[libx264 @ 0x55adff347700] Weighted P-Frames: Y:3.2% UV:0.0%
[libx264 @ 0x55adff347700] kb/s:5423.86
[aac @ 0x55adff2dd980] Qavg: 1318.984
[AVIOContext @ 0x55adff283080] Statistics: 125730554 bytes read, 2 seeks
[AVIOContext @ 0x55adff32fc00] Statistics: 1530915 bytes read, 42 seeks
